# xmcd
#
# Track frame offsets: 
#        150
#        69136
#        146617
#        217630
#
# Disc length: 4480 seconds
#
# Revision: 2
# Processed by: cddbd v1.5.2PL0 Copyright (c) Steve Scherf et al.
# Submitted via: ExactAudioCopy v1.0b1
#
DISCID=2d117e04
DTITLE=Chet Baker - Live at the Dreher Club - Friday Concert
DYEAR=1980
DGENRE=Jazz
TTITLE0=Conception
TTITLE1=There'll never be another you
TTITLE2=The touch of your lips
TTITLE3=No ties
EXTD=YEAR: 1980
EXTT0=
EXTT1=
EXTT2=
EXTT3=
PLAYORDER=
